<svg xmlns="http://www.w3.org/2000/svg" aria-hidden="true" role="presentation" fill="#cc66ff" viewBox="0 0 1976.18 1645.52" width="20"><path d="M935.64 1289.24c-1.06 63.94-4.6 111.75-26.33 172.64-5.87 16.45-13.1 31.13-21.85 46.22-15.67 27.01-34.78 51.13-58.46 71.55-25.63 22.1-54.01 38.95-86.06 50.02-39.2 13.53-80.07 18.37-121.42 14.44-99.98-9.51-180.26-81.15-204.93-178.27-8.35-32.86-9.75-65.77-2.63-99.08 14.31-66.88 58.53-120.87 127.39-133.89 33.85-6.4 68.84-.57 97.5 18.75 45.32 30.54 63.19 92.69 30.82 138.61-11.78 16.71-35.49 26.46-54.48 17.69 21.36-23.79 25.66-52.59 4.16-75.86-6.71-7.26-15.24-11.95-25.45-13.54-29.72-4.62-56.21 12.67-68.12 39.9-20 45.73-2.55 98.23 35.45 129.88 48.28 40.22 119.33 32.85 164.95-9.4 31.16-28.87 47.01-66.27 52.92-108.1 3.27-23.16 4.22-45.7 2.96-69.21l-3.74-69.6c-1.45-27.02-1.43-53.23 2-80.19 3.16-24.86 7.09-48.91 13.98-72.93l15.77-45.17 21.76-45.17.87-1.61c.13-.23-.74.02-1.31.18-16.71 13.89-31.03 29.39-43.92 47.06-12.55 19.69-23.22 39.72-30.95 61.84l-10.67 41.45c-3.92 15.21-3.82 30.28-3.53 45.9-18.7 20.83-34.83 42.27-48.25 66.88l-20.59-20.27c-20.26-16.88-44.21-28.3-70.07-33.66-18.68-3.87-36.52-3.07-55.61-1.8l4.21-6.88 37.84-67.21c19.66-34.92 41.99-67.58 66.92-98.9l29.64-34.5 34.77-35.31-.1-1.33-29.03 14.4c-20.4 11.56-38.24 25.65-56.24 40.69l-31.15 33.97c-20.56 24.46-37.33 51.27-51.86 80.47-58.57 11.36-118.73 10.65-176.8-3.34-22.83-5.5-43.93-13.32-65.15-22.95-47.7-21.63-88.44-54-121.29-94.77-24.75-30.71-43.93-65.42-55.6-103.21-15.98-51.76-17.75-100.96-8.02-153.94 5.26-28.64 12.76-55.54 25.44-81.57l23.93-49.16 25.47-52.57c10.28-21.23 15.77-43.63 17.47-67.32 1.5-21-3.29-41.7-13.92-59.88-16.66-28.5-49.11-44.02-81.53-37.7-34 6.62-58.12 36.56-56.76 71.01.62 15.73 8.27 29.43 21.71 37.2 8.13 4.7 18.47 6.14 27.37 2.89 12.81-4.68 21.03-16.63 22.9-29.83.11-.75.92-2.46 1.58-2.43l3.11.16c6.64 7.5 10.15 16.01 10.33 26.11-.26 12.25-3.35 24.36-10.99 34.14C122.3 558.01 85.11 561.5 56 547.47 9.49 525.08-8.59 467.1 3.79 418.51c5.6-21.96 16.18-41.2 31.06-57.91 31.02-34.82 75.6-51.83 122.08-49.24 40.9 2.27 78.47 18.15 107.57 46.65 27.36 26.79 45.01 60.46 50.72 98.54 2.44 16.28 4.21 31.7 2.16 48.23-5.91 47.51-13.73 68.9-30.3 112.05l-17.21 44.83-11.73 42.19c-7.68 32.32-11.12 64.77-6.32 97.81 2.5 17.25 6.33 32.95 13.21 49 17.24 40.25 46.85 73.97 84.95 95.75 21.95 12.54 45.25 20.04 69.87 25.17 28.77 6 56.9 7.25 86.15 2.9 55.22-8.21 94.7-28.93 134.91-66.88l.75-1.57-33.14 13.12c-16.94 6.71-34.44 10.11-52.47 13.66-27.33 5.37-54.26 7.08-82.08 7.52-29.74-18.6-59.63-45.98-76.82-76-11.01-19.23-19.17-39.51-23.48-61.5-6.12-31.2-5.34-62.71 1.74-93.63 9.48-41.39 38.8-80.74 66.45-112.67 24.73-28.56 47.75-61.77 37.41-100.22-3.89-14.47-14.92-25.79-29.74-28.08-11.42-1.77-22.07 4.15-28.57 13.39-1.11 1.57-3.14 3.63-4.58 3.87-8.72 1.45-22.25-36.27 5.93-57.74 15.67-11.94 36.22-15.38 55.52-10.09 41.99 11.52 68.6 53.34 72.1 95.96 2.03 24.76.26 49.3-9.93 71.97l-12.42 27.64-16.01 27.02c-7.93 13.38-15.46 26.28-20.88 41.01-7.78 21.18-10.99 43.52-7.19 65.88 3.71 21.76 14.9 40.31 29.59 56.25 19.49 21.16 44.44 33.97 73 37.97 27.35 3.83 53.86-1.94 77.1-16.49 22.24-13.92 42.08-37.59 44.8-64.23 3.3-32.34-6.35-57.19-20.94-85.17l-26.39-50.6c-18.43-35.34-36.26-92.27-44.63-132.38-5.62-26.91-8.48-53.42-10.43-80.88-1.7-23.9-.96-46.21 1.42-70.13 5.05-50.81 18.88-99.92 42.69-145.21 34.13-64.91 87.75-117.25 152.68-151.28 119.83-62.8 271.46-59.95 388.02 9.12 107.34 63.61 168.93 170.53 179.17 294.07 1.79 21.62 2.27 41.79.75 63.41-1.82 25.75-4.37 50.58-9.43 75.9-9.9 49.56-25.26 94.6-46.97 140.03l-23.77 45.23c-14.92 28.39-28.24 60.07-21.32 92.38 3.61 16.86 12.84 33.2 25.71 44.62 32.61 28.93 77.78 38.33 118.9 24.14 39.73-13.71 70.45-46.11 82.14-86.46 3.64-12.57 6.06-25.57 5.5-38.59-.95-22.26-6.59-43.95-15.15-64.36-6.8-16.22-16.04-30.01-24.91-45.03-12.85-21.75-23.48-43.71-29.43-68.54-12.77-53.27-1.83-107.44 35.89-147.69 24.98-26.66 67.45-41.07 99.43-21.65 8.74 5.31 15.91 13.08 19.25 22.82 6.77 19.73-2.07 43.74-10.17 43.03-1.82-.16-4.42-3.85-5.43-5.43-5.38-10.35-15.87-15.4-27.14-13.76-19.33 1.6-33.52 14.64-39.04 32.71-5.15 16.86-6.61 32.93-3.09 50.24 3.02 14.83 7.74 28.34 15.62 41.43l30.12 41.94c19.11 24.64 36.55 49.78 49.43 78.5a224 224 0 0 1 19.54 97.42c-.57 21.77-4.88 42.37-11.29 62.9s-16.86 40.37-29.37 58.63c-19.35 28.24-45.01 50.37-74.56 67.59l-35.67-1.19-33.25-3.52-1.83-.32-1.73-.31-1.7-.31-1.58-.26-1.69-.25-1.77-.26c-19.13-4.02-37.74-8.54-56.22-14.92l-28.69-11.69c-.46.24-1.52 1.16-1.37 1.26 18.13 15.87 35.47 30.73 56.83 41.69 47.12 24.18 101.52 32.73 153.73 24.05 59.11-9.82 105.18-33.79 141.4-81.59 47.05-62.08 46.27-135.99 25.61-208.53l-17.45-50.48c-9.4-23.4-18.93-45.76-25.64-70.18-5.13-18.65-8.61-36.98-11.01-56.16-2.34-18.66-.36-36.13 2.78-54.32 6.43-37.34 24.38-69.53 51.64-95.64 29.92-28.66 69.19-43.78 110.79-45.3 52.44-1.92 102.18 22.52 130.7 66.52 23.64 36.48 28.8 82.3 10.69 121.97-11.39 24.95-31.55 44.3-57.7 52.22-35.52 10.75-76.49-3.96-83.31-41.84-3.13-13.68-.55-27.1 8.88-37.63l4.21.02c2.05 12.84 8.47 25.04 20.63 30.74 8.87 4.16 19.18 3.44 28.08-.83 14.18-6.8 22.69-21 23.57-36.97 2.08-37.71-25.98-69.53-63.63-73.15-30.4-2.92-58.92 12.5-74.48 38.86-12.87 21.81-16.31 47.08-12.28 72.12 2.27 14.13 4.58 27.65 10.23 40.68l15.11 34.84 29.75 59.34c26.32 52.49 41.67 109.24 41.85 168.16l-.04 2.21c-.5 27.69-4.87 54.17-12.22 80.88-6.25 22.72-15.84 43.4-26.9 64.09-7.82 14.63-16.72 27.26-26.79 40.35-86.7 112.7-229.54 152.23-366.33 126.13l-1.01-1.47-.84-1.2-.84-1.2-.91-1.31c-16.91-34.47-38.89-65.5-65.08-93.53l-1.01-1.06-1.01-1.08-.82-1.27c-12.92-13.25-26.95-24.89-41.88-35.91l-1.24-.91c-16.38-11.97-33.68-21.49-52.46-29.49l-1.58-.67c-.27-.12-1.19-.29-1-.07l1.12 1.27.99 1.14 1.02 1.01c38.33 35.97 71.26 76.39 100.46 120.21l30.79 50.29 13.17 23.92 25.51 44.5-.14 1.2c-17.49-1.01-33.37-1.9-50.42 1.07-35.63 6.22-67.3 24.69-91.28 51.5l-2.56 2.58c-.62.62-1.97-1.03-2.71-2.41-12.67-23.32-28.85-43.69-46.58-63.78.25-14.18-.21-27.67-2.96-41.74-7.48-38.27-16.82-65.98-37.46-99.44-12.98-21.04-29.63-38.59-48.16-54.85l-2-.28c14.66 24.23 24.47 49.37 33.76 75.7 5.91 16.75 9.9 32.48 13.13 50.03 7.77 42.17 10.5 83.76 7.39 126.67l-3.77 77.06c-1.27 25.94 1.61 50.78 7.47 75.96 15.78 67.85 69.79 123.51 141.87 122.28 45.92-.79 85.84-28.01 104.91-69.42 13.54-29.42 14.38-63.21-.39-92.19-15.09-29.6-50.5-44.55-79.44-29.53-15.25 7.92-24.19 24.03-25.44 40.78-.09 15.45 5.75 28.51 15.71 39.93.55.46 2.79 3.14 1.97 3.62-.97.58-3.57 1.85-4.89 2.14-38.03 8.32-65.42-31.8-65.48-70.62-.07-42.1 25.54-79.28 63.27-96.77 16.99-7.87 33.91-12.39 52.93-12.39 25.8 0 51.11 5.83 73.82 18.37 69.71 38.49 97.58 126.39 82.89 202.41-21.34 110.46-111.07 190.01-223.93 194.17-103.85 3.83-196.74-45.77-249.11-135.46-8.78-15.05-16.4-29.34-22.43-45.73-14.78-40.22-22.9-81.55-25.14-124.52l-2.21-97.98c-.56-25.02-2.88-48.88-9.15-72.84-3.83-14.65-9.58-28.02-20.3-38.71-6.95-6.94-16.57-11.3-26.4-10.03-10.67 1.38-19.04 8.34-24.74 16.94-4.64 7.01-8.46 13.91-11.1 21.96-6.79 20.68-11.13 41.53-11.5 63.48l-1.1 66.82Z"/><path d="M1732.4 1205.28c-17.6-.32-33.71 7.35-42.95 21.74-6.9 10.76-7.83 25.03-2.41 36.44 4.38 9.21 13.62 14.78 23.54 16.32 7.41 1.15 14.58-.02 22.63-.41.07 5.42-2.74 9.67-5.95 13.52-19.23 23.09-53.94 19.44-75.99-1.86-21.57-20.84-29.57-52.31-22.63-81.48 4.24-17.87 11.91-33.34 25.27-46.19 17.19-16.55 38.86-29.04 63.05-32.81 39.33-6.13 79.09 5.2 109.97 30.05 49 39.43 73.88 101.43 67.29 164.08-4.57 43.49-23.74 83.07-52.7 115.57-65.44 70.44-161.75 87.21-253.25 58.2 16.69-44.78 19.4-91.73 10.05-139.78 12.86 9.28 24.23 17.46 37.77 23.71 20.39 9.04 41.35 14.12 63.85 13.13 42.71-1.63 80.94-26.84 97.74-66.01 13.48-31.42 10.18-67.27-9.57-94.96-13.02-18.25-32.62-28.83-55.71-29.25ZM186.05 1237.22c-19.12 28.98-20.86 64.52-6.07 95.44 18.15 37.95 55.77 61.54 98.02 62.82 26.88.82 52.45-6.82 75.52-20.3l24.6-16.95c-9.67 47.11-6.96 94.22 9.62 140.04-72.63 24.03-151.88 17.09-215.95-25.58-56.42-38.98-93.77-106-90.8-175.1 2.14-49.64 22.96-96.09 59.37-129.52 29.29-26.89 67.56-41.34 107.6-38.71 31.43 2.07 61.01 17.05 80.95 41.08 13.21 15.92 19.39 35.57 20.8 56.26 2.58 37.85-24.25 79.44-63.7 81.73-16 .93-30.36-5.6-39.48-18.54-2.11-3-3.23-6.48-3.89-10.4l15.43.57c11.26.42 23.93-4.31 29.88-14.41 7.59-12.87 5.67-30.05-3.36-41.67-10.06-12.96-25.38-18.85-41.78-18.62-23.05.32-43.79 12.16-56.78 31.85Z"/></svg>
